<svg xmlns="http://www.w3.org/2000/svg" xmlns:xlink="http://www.w3.org/1999/xlink" width="297.098" height="67.309" viewBox="0 0 297.098 67.309">
  <defs>
    <linearGradient id="linear-gradient" x1="0.345" y1="0.5" x2="5.864" y2="0.5" gradientUnits="objectBoundingBox">
      <stop offset="0" stop-color="#ea00e1"/>
      <stop offset="1" stop-color="#839aff"/>
    </linearGradient>
    <linearGradient id="linear-gradient-2" x1="-4.041" y1="0.5" x2="24.339" y2="0.5" xlink:href="#linear-gradient"/>
    <linearGradient id="linear-gradient-3" x1="-1.66" y1="0.5" x2="6.252" y2="0.5" xlink:href="#linear-gradient"/>
    <linearGradient id="linear-gradient-4" x1="-4.207" y1="0.5" x2="7.002" y2="0.5" xlink:href="#linear-gradient"/>
    <linearGradient id="linear-gradient-5" x1="-2.29" y1="0.5" x2="2.373" y2="0.5" xlink:href="#linear-gradient"/>
    <linearGradient id="linear-gradient-6" x1="-20.023" y1="0.5" x2="6.863" y2="0.5" xlink:href="#linear-gradient"/>
    <linearGradient id="linear-gradient-7" x1="-8.975" y1="0.5" x2="2.095" y2="0.5" xlink:href="#linear-gradient"/>
    <linearGradient id="linear-gradient-8" x1="-6.277" y1="0.5" x2="0.56" y2="0.5" xlink:href="#linear-gradient"/>
  </defs>
  <g id="Alarmify_Text" data-name="Alarmify Text" transform="translate(-606.388 -189.171)">
    <path id="Path_1" data-name="Path 1" d="M606.388,245.533l18.873-49.173H636.1l18.062,49.173H643.765l-16.072-45.781,4.423-.442-16,46.224Zm9.953-12.017,2.433-7.667h22.854l.885,7.667Z" transform="translate(0 -3.429)" fill="url(#linear-gradient)"/>
    <path id="Path_2" data-name="Path 2" d="M718.994,243.65h-9.289V192.413h9.289Z" transform="translate(-49.279 -1.546)" fill="url(#linear-gradient-2)"/>
    <path id="Path_3" data-name="Path 3" d="M759.45,256.723a28.972,28.972,0,0,1-5.971-.589,15.1,15.1,0,0,1-5.013-1.991,10.017,10.017,0,0,1-3.5-3.8,14.251,14.251,0,0,1,.258-12.385,9.874,9.874,0,0,1,4.534-3.981,17.62,17.62,0,0,1,7.336-1.364,24.1,24.1,0,0,1,4.94.479,19.484,19.484,0,0,1,4.128,1.327,14.288,14.288,0,0,1,3.023,1.807l.663,5.234A13.066,13.066,0,0,0,765.9,239.8a20.512,20.512,0,0,0-5.2-.627,10.791,10.791,0,0,0-5.824,1.254,4.333,4.333,0,0,0-1.916,3.907,4.6,4.6,0,0,0,1.032,3.023,6.014,6.014,0,0,0,2.654,1.843,9.826,9.826,0,0,0,3.391.59,22.087,22.087,0,0,0,5.861-.553,2.306,2.306,0,0,0,1.807-2.4v-14.6q0-3.611-2.286-5.271a10.762,10.762,0,0,0-6.413-1.659,21.108,21.108,0,0,0-6.488,1.069,16.275,16.275,0,0,0-5.382,2.765v-8.478a18.644,18.644,0,0,1,5.971-2.248,37.876,37.876,0,0,1,8.552-.922,26.489,26.489,0,0,1,4.055.332,18.4,18.4,0,0,1,4.128,1.143,12.178,12.178,0,0,1,3.613,2.285,10.71,10.71,0,0,1,2.581,3.649,13.061,13.061,0,0,1,.958,5.272l-.074,17.619a6.822,6.822,0,0,1-2.175,5.345,12.867,12.867,0,0,1-6.119,2.765A46.026,46.026,0,0,1,759.45,256.723Z" transform="translate(-65.481 -13.513)" fill="url(#linear-gradient-3)"/>
    <path id="Path_4" data-name="Path 4" d="M827.115,255.617V222.073a19.748,19.748,0,0,1,3.649-1.807,43.658,43.658,0,0,1,6.082-1.916,29.381,29.381,0,0,1,7-.848,17.8,17.8,0,0,1,4.239.406,9.314,9.314,0,0,1,2.543,1v7.077q-1.476-.221-3.354-.369t-3.834-.11q-1.954.038-3.76.184t-3.207.369v29.563Z" transform="translate(-105.28 -13.513)" fill="url(#linear-gradient-4)"/>
    <path id="Path_5" data-name="Path 5" d="M918.864,230.846v24.771H909.5V232.468a9.77,9.77,0,0,0-.369-2.691,5.522,5.522,0,0,0-3.686-3.833,12.031,12.031,0,0,0-3.981-.553,16.642,16.642,0,0,0-3.539.369,17.7,17.7,0,0,0-3.1.959v28.9h-9.363v-34.06a26.9,26.9,0,0,1,3.686-1.548,42.2,42.2,0,0,1,4.645-1.29q2.505-.552,5.087-.884a38.226,38.226,0,0,1,4.865-.332,22.577,22.577,0,0,1,8.441,1.364,9.77,9.77,0,0,1,5.013,4.313A15.551,15.551,0,0,1,918.864,230.846Zm-10.1-7.078a22.886,22.886,0,0,1,5.382-3.354,34.149,34.149,0,0,1,6.377-2.138,28.4,28.4,0,0,1,6.377-.774,22.581,22.581,0,0,1,8.441,1.364,9.771,9.771,0,0,1,5.013,4.313,15.551,15.551,0,0,1,1.659,7.667v24.771H932.65V232.468a9.768,9.768,0,0,0-.369-2.691,5.521,5.521,0,0,0-3.686-3.833,13.466,13.466,0,0,0-7.52-.037,10.168,10.168,0,0,0-3.1,1.548Z" transform="translate(-133.112 -13.513)" fill="url(#linear-gradient-5)"/>
    <path id="Path_6" data-name="Path 6" d="M1013.311,201.7v-7.741h9.805V201.7Zm.221,42.685V207.6h9.363l.073,36.787Z" transform="translate(-194.089 -2.286)" fill="url(#linear-gradient-6)"/>
    <path id="Path_7" data-name="Path 7" d="M1052.252,242.1V212.32h-5.677v-7.372h5.75v-1.179a21.355,21.355,0,0,1,.811-6.34,12.483,12.483,0,0,1,2.175-4.239,9.3,9.3,0,0,1,3.1-2.506,13.49,13.49,0,0,1,3.649-1.179,22.434,22.434,0,0,1,3.834-.332,16.87,16.87,0,0,1,2.433.184,10.839,10.839,0,0,1,2.064.48v8.257a5.549,5.549,0,0,0-1.4-.922,4.943,4.943,0,0,0-1.991-.332,10.547,10.547,0,0,0-1.991.185,3.641,3.641,0,0,0-1.7.811,4.3,4.3,0,0,0-1.179,1.807,8.984,8.984,0,0,0-.442,3.1v2.212h8.7v7.372h-8.773V242.1Z" transform="translate(-209.955)" fill="url(#linear-gradient-7)"/>
    <path id="Path_8" data-name="Path 8" d="M1110.725,270.867a14.59,14.59,0,0,1-3.133-.332,16.815,16.815,0,0,1-2.617-.774v-7.815a18,18,0,0,0,1.991.589,9.155,9.155,0,0,0,2.064.221,5.728,5.728,0,0,0,3.428-1.032,7.662,7.662,0,0,0,2.4-3.133,23.03,23.03,0,0,0,1.548-5.419l.147,5.087-15.85-38.926h10.69l9.584,27.646h-1.106l9.436-27.646h9.953l-14.966,38.557a30.254,30.254,0,0,1-4.165,7.777,14.222,14.222,0,0,1-4.608,4.018A10.626,10.626,0,0,1,1110.725,270.867Z" transform="translate(-235.771 -14.387)" fill="url(#linear-gradient-8)"/>
  </g>
</svg>
