<svg xmlns="http://www.w3.org/2000/svg" width="193.859" height="181.008" viewBox="0 0 193.859 181.008">
  <g id="Clock_Loading_Icon" transform="translate(-1439.428 -232.056)">
    <circle id="Ellipse_1" data-name="Ellipse 1" cx="66.106" cy="66.106" r="66.106" transform="translate(1468.969 276.853)" fill="none" stroke="#839aff" stroke-miterlimit="10" stroke-width="8"/>
    <path id="Rectangle_1" data-name="Rectangle 1" d="M26.7,0h0a26.7,26.7,0,0,1,26.7,26.7v5.509a0,0,0,0,1,0,0H0a0,0,0,0,1,0,0V26.7A26.7,26.7,0,0,1,26.7,0Z" transform="translate(1589.876 237.713) rotate(45)" fill="none" stroke="#839aff" stroke-miterlimit="10" stroke-width="8"/>
    <path id="Rectangle_2" data-name="Rectangle 2" d="M0,0H53.393a0,0,0,0,1,0,0V5.509a26.7,26.7,0,0,1-26.7,26.7h0A26.7,26.7,0,0,1,0,5.509V0A0,0,0,0,1,0,0Z" transform="translate(1505.613 260.485) rotate(135)" fill="none" stroke="#839aff" stroke-miterlimit="10" stroke-width="8"/>
    <g id="Group_1" data-name="Group 1">
      <rect id="Rectangle_3" data-name="Rectangle 3" width="43.564" height="43.564" transform="translate(1513.293 321.176)" fill="none" stroke="#839aff" stroke-linecap="round" stroke-miterlimit="10" stroke-width="0.77" opacity="0"/>
      <line id="Line_1" data-name="Line 1" y1="21.782" transform="translate(1535.075 321.176)" fill="none" stroke="#839aff" stroke-linecap="round" stroke-miterlimit="10" stroke-width="8"/>
    </g>
    <g id="Group_2" data-name="Group 2">
      <rect id="Rectangle_4" data-name="Rectangle 4" width="56.556" height="56.556" transform="translate(1506.797 314.68)" fill="none" stroke="#839aff" stroke-linecap="round" stroke-miterlimit="10" stroke-width="1" opacity="0"/>
      <line id="Line_2" data-name="Line 2" x2="28.278" y2="28.278" transform="translate(1535.075 342.958)" fill="none" stroke="#839aff" stroke-linecap="round" stroke-miterlimit="10" stroke-width="8"/>
    </g>
  </g>
</svg>
