<svg xmlns="http://www.w3.org/2000/svg" width="193.859" height="71.841" viewBox="0 0 193.859 71.841">
  <g id="ears" transform="translate(-1439.428 -232.056)">
    <path id="Rectangle_1" data-name="Rectangle 1" d="M26.7,0h0a26.7,26.7,0,0,1,26.7,26.7v5.509a0,0,0,0,1,0,0H0a0,0,0,0,1,0,0V26.7A26.7,26.7,0,0,1,26.7,0Z" transform="translate(1589.876 237.713) rotate(45)" fill="none" stroke="#839aff" stroke-miterlimit="10" stroke-width="8"/>
    <path id="Rectangle_2" data-name="Rectangle 2" d="M0,0H53.393a0,0,0,0,1,0,0V5.509a26.7,26.7,0,0,1-26.7,26.7h0A26.7,26.7,0,0,1,0,5.509V0A0,0,0,0,1,0,0Z" transform="translate(1505.613 260.485) rotate(135)" fill="none" stroke="#839aff" stroke-miterlimit="10" stroke-width="8"/>
  </g>
</svg>
